# AST/ASF file generated using VICON BodyLanguage
# -----------------------------------------------
:version 1.10
:name VICON
:units
  mass 1.0
  length 0.45
  angle deg
:documentation
   .ast/.asf automatically generated from VICON data using
   VICON BodyBuilder and BodyLanguage model FoxedUp or BRILLIANT.MOD
:root
   order TX TY TZ RX RY RZ
   axis XYZ
   position 0 0 0  
   orientation 0 0 0 
:bonedata
  begin
     id 1 
     name lhipjoint
     direction 0.62366 -0.717238 0.310833 
     length 2.53602 
     axis 0 0 0  XYZ
  end
  begin
     id 2 
     name lfemur
     direction 0.34202 -0.939693 0  
     length 7.40817  
     axis 0 0 20  XYZ
    dof rx ry rz
    limits (-160.0 20.0)
           (-70.0 70.0)
           (-60.0 70.0)
  end
  begin
     id 3 
     name ltibia
     direction 0.34202 -0.939693 0   
     length 7.7045   
     axis 0 0 20   XYZ
    dof rx
    limits (-10.0 170.0)
  end
  begin
     id 4 
     name lfoot
     direction 0.0673888 -0.185149 0.980397   
     length 2.09456   
     axis -90 7.62852e-016 20   XYZ
    dof rx rz
    limits (-45.0 90.0)
           (-70.0 20.0)
  end
  begin
     id 5 
     name ltoes
     direction 1.53575e-011 -4.21994e-011 1   
     length 1.05543   
     axis -90 7.62852e-016 20   XYZ
    dof rx
    limits (-90.0 20.0)
  end
  begin
     id 6 
     name rhipjoint
     direction -0.489018 -0.800347 0.346851   
     length 2.27268  
     axis 0 0 0  XYZ 
  end
  begin
     id 7 
     name rfemur
     direction -0.34202 -0.939693 0   
     length 7.55487   
     axis 0 0 -20   XYZ
    dof rx ry rz
    limits (-160.0 20.0)
           (-70.0 70.0)
           (-70.0 60.0)
  end
  begin
     id 8 
     name rtibia
     direction -0.34202 -0.939693 0   
     length 7.78969   
     axis 0 0 -20   XYZ
    dof rx
    limits (-10.0 170.0)
 end
 begin
     id 9 
     name rfoot
     direction -0.0859318 -0.236096 0.967923   
     length 2.19143  
     axis -90 -7.62852e-016 -20   XYZ
    dof rx rz
    limits (-45.0 90.0)
           (-20.0 70.0)
  end
  begin
     id 10 
     name rtoes
     direction -1.53538e-011 -4.21989e-011 1   
     length 1.09845   
     axis -90 -7.62852e-016 -20   XYZ
    dof rx
    limits (-90.0 20.0)
  end
  begin
     id 11 
     name lowerback
     direction -0.00762546 0.998978 -0.0445553   
     length 1.98161   
     axis 0 0 0   XYZ
    dof rx ry rz
    limits (-20.0 45.0)
           (-30.0 30.0)
           (-30.0 30.0)
  end
  begin
     id 12 
     name upperback
     direction 0.0422361 0.998867 -0.0219156   
     length 1.97558   
     axis 0 0 0   XYZ
    dof rx ry rz
    limits (-20.0 45.0)
           (-30.0 30.0)
           (-30.0 30.0)
  end
  begin
     id 13 
     name thorax
     direction 0.0442465 0.999021 7.47603e-005   
     length 1.97799   
     axis 0 0 0   XYZ
    dof rx ry rz
    limits (-20.0 45.0)
           (-30.0 30.0)
           (-30.0 30.0)
  end
  begin
     id 14 
     name lowerneck
     direction 0.00312169 0.984641 0.174564   
     length 1.78995   
     axis 0 0 0   XYZ
    dof rx ry rz
    limits (-20.0 45.0)
           (-30.0 30.0)
           (-30.0 30.0)
  end
  begin
     id 15 
     name upperneck
     direction -0.0383028 0.985255 -0.166749   
     length 1.83053   
     axis 0 0 0   XYZ
    dof rx ry rz
    limits (-20.0 45.0)
           (-30.0 30.0)
           (-30.0 30.0)
  end
  begin
     id 16
     name head
     direction -0.0129546 0.997059 -0.0755386  
     length 1.84088  
     axis 0 0 0   XYZ
    dof rx ry rz
    limits (-20.0 45.0)
           (-30.0 30.0)
           (-30.0 30.0)
  end
  begin
     id 17 
     name lclavicle
     direction 0.912857 0.370519 -0.171488  
     length 3.51279  
     axis 0 0 0   XYZ
    dof ry rz
    limits (-20.0 10.0)
           (0.0 20.0)
  end
  begin
     id 18 
     name lhumerus
     direction 1 -4.48962e-011 3.64361e-027   
     length 4.95663   
     axis 180 -30 -90   XYZ
    dof rx ry rz
    limits (-60.0 90.0)
           (-90.0 90.0)
           (-90.0 90.0)
  end
  begin
     id 19
     name lradius
     direction 1 -4.48974e-011 5.97202e-027   
     length 3.38177   
     axis 180 -30 -90   XYZ
    dof rx
    limits (-10.0 170.0)
  end
  begin
     id 20
     name lwrist
     direction 1 -4.4896e-011 9.83288e-027   
     length 1.69088   
     axis -9.31221e-015 90 90   XYZ
    dof ry
    limits (-180.0 0.0)
 end
  begin
     id 21 
     name lhand
     direction 1 -4.4902e-011 1.96551e-026   
     length 0.662909   
     axis -1.25475e-014 90 90   XYZ
    dof rx rz
    limits (-90.0 90.0)
           (-45.0 45.0)
  end
  begin
     id 22 
     name lfingers
     direction 1 -4.48971e-011 3.93277e-026   
     length 0.534454   
     axis -2.50945e-014 90 90   XYZ
    dof rx
    limits (0.0 90.0)
  end
  begin
     id 23
     name lthumb
     direction 0.707107 -6.34933e-011 0.707107   
     length 0.767373   
     axis -90 45 -4.80359e-014   XYZ
    dof rx rz
    limits (-45.0 45.0)
           (-45.0 45.0)
  end
  begin
     id 24 
     name rclavicle
     direction -0.900919 0.395364 -0.178976   
     length 3.40627  
     axis 0 0 0   XYZ 
    dof ry rz
    limits (-10.0 20.0)
           (-20.0 0.0)
  end
  begin
     id 25 
     name rhumerus
     direction -1 -4.48969e-011 1.03875e-027  
     length 5.08365   
     axis 180 30 90   XYZ
    dof rx ry rz
    limits (-90.0 60.0)
           (-90.0 90.0)
           (-90.0 90.0)
  end
  begin
     id 26 
     name rradius
     direction -1 -4.48951e-011 5.02733e-027   
     length 3.35984   
     axis 180 30 90   XYZ
    dof rx
    limits (-10.0 170.0)
  end
  begin
     id 27 
     name rwrist
     direction -1 -4.49011e-011 9.82828e-027   
     length 1.67992   
     axis -9.31221e-015 -90 -90   XYZ
    dof ry
    limits (-180.0 0.0)
  end
  begin
     id 28
     name rhand
     direction -1 -4.48894e-011 1.96774e-026   
     length 0.820764   
     axis -1.25475e-014 -90 -90   XYZ
    dof rx rz
    limits (-90.0 90.0)
           (-45.0 45.0)
  end
  begin
     id 29
     name rfingers
     direction -1 -4.49095e-011 3.92833e-026   
     length 0.661721   
     axis -2.50945e-014 -90 -90   XYZ
    dof rx
    limits (0.0 90.0)
  end
  begin
     id 30
     name rthumb
     direction -0.707107 -6.34881e-011 0.707107   
     length 0.950103   
     axis -90 -45 4.80359e-014   XYZ
    dof rx rz
    limits (-45.0 45.0)
           (-45.0 45.0)
  end
:hierarchy
  begin
    root lhipjoint rhipjoint lowerback
    lhipjoint lfemur
    lfemur ltibia
    ltibia lfoot
    lfoot ltoes
    rhipjoint rfemur
    rfemur rtibia
    rtibia rfoot
    rfoot rtoes
    lowerback upperback
    upperback thorax
    thorax lowerneck lclavicle rclavicle
    lowerneck upperneck
    upperneck head
    lclavicle lhumerus
    lhumerus lradius
    lradius lwrist
    lwrist lhand lthumb
    lhand lfingers
    rclavicle rhumerus
    rhumerus rradius
    rradius rwrist
    rwrist rhand rthumb
    rhand rfingers
  end

#!OML:ASF I:\golf\golf\golf 2\Subject 1\2002-09-07\Subject1.ASF
:FULLY-SPECIFIED
:DEGREES
107
root -8.13613 17.6092 -0.160073 -65.1457 87.7766 -80.2227
lowerback 5.38017 3.46069 -3.03165
upperback 4.05473 4.61362 4.09632
thorax 0.605915 2.2714 5.70653
lowerneck -15.1367 -2.2959 0.552686
upperneck 37.4554 0.0302367 -4.92772
head 15.7931 -0.0607168 -2.06602
rclavicle 1.90833e-014 1.98785e-014
rhumerus -7.74653 1.10342 -103.151
rradius 30.8712
rwrist -51.1731
rhand -26.0508 -10.2077
rfingers 7.12502
rthumb 0.496709 -40.1869
lclavicle 1.90833e-014 1.98785e-014
lhumerus -3.93803 -55.7085 103.34
lradius 21.6921
lwrist 32.7651
lhand -0.947577 62.6539
lfingers 7.12502
lthumb -155.318 88.9181
rfemur -32.2475 -1.59244 10.126
rtibia 33.7432
rfoot -11.0018 -6.4332
rtoes 20.4293
lfemur -31.0762 6.42149 -9.05252
ltibia 32.2784
lfoot -12.4412 -3.97435
ltoes -22.6477
108
root -8.14034 17.6138 -0.137947 -57.883 87.6942 -72.9712
lowerback 5.43242 3.50595 -3.12445
upperback 4.05469 4.66543 3.97435
thorax 0.573401 2.29595 5.62421
lowerneck -15.0779 -2.20232 0.540047
upperneck 37.3435 0.134341 -4.86669
head 15.7275 -0.0147941 -2.01604
rclavicle -6.75868e-014 -3.26007e-014
rhumerus -7.94465 0.989655 -103.399
rradius 31.4042
rwrist -51.6182
rhand -26.2892 -10.1311
rfingers 7.12502
rthumb 0.2664 -40.1106
lclavicle -6.75868e-014 -3.26007e-014
lhumerus -3.63079 -57.4734 102.581
lradius 21.8391
lwrist 33.132
lhand -0.714448 62.5301
lfingers 7.12502
lthumb -155.094 89.0726
rfemur -32.4068 -1.42072 10.1834
rtibia 33.8069
rfoot -10.839 -6.26167
rtoes 19.8763
lfemur -30.9176 6.30714 -8.92555
ltibia 32.1702
lfoot -12.364 -3.51783
ltoes -23.0732
109
root -8.14348 17.6187 -0.110811 -49.8433 87.4575 -64.9973
lowerback 5.37326 3.56832 -3.3097
upperback 4.07528 4.74014 3.9407
thorax 0.607523 2.32847 5.69345
lowerneck -15.0384 -2.07411 0.409088
upperneck 37.189 0.303995 -4.76089
head 15.6496 0.0459621 -1.91415
rclavicle -7.95139e-015 -2.62396e-014
rhumerus -8.21983 1.30598 -103.527
rradius 32.1357
rwrist -52.4514
rhand -26.9107 -10.2019
rfingers 7.12502
rthumb -0.333837 -40.1814
lclavicle -7.95139e-015 -2.62396e-014
lhumerus -3.21188 -58.8918 101.81
lradius 22.0011
lwrist 33.2161
lhand -0.318989 62.3191
lfingers 7.12502
lthumb -154.715 89.3366
rfemur -32.6494 -1.21848 10.3532
rtibia 33.8499
rfoot -11.5853 -5.22829
rtoes 33.7648
lfemur -30.7629 6.30888 -8.71918
ltibia 32.0453
lfoot -12.3019 -3.02579
ltoes -23.4844
110
root -8.14566 17.6228 -0.0836354 -42.1095 87.1466 -57.2969
lowerback 5.29728 3.63095 -3.58258
upperback 4.14538 4.81448 3.95976
thorax 0.691288 2.3574 5.87104
lowerneck -15.0696 -1.94169 0.2193
upperneck 37.0584 0.532025 -4.73404
head 15.6043 0.11174 -1.82772
rclavicle 6.95746e-014 3.49861e-014
rhumerus -8.42498 1.69166 -103.592
rradius 32.8214
rwrist -53.2953
rhand -27.6561 -10.312
rfingers 7.12502
rthumb -1.05373 -40.2892
lclavicle 6.95746e-014 3.49861e-014
lhumerus -2.57586 -59.8884 100.96
lradius 22.0831
lwrist 32.8668
lhand 0.498167 61.6254
lfingers 7.12502
lthumb -153.933 -90.1433
rfemur -32.8585 -0.927945 10.4943
rtibia 33.8771
rfoot -10.7015 -5.34618
rtoes 28.5876
lfemur -30.5485 6.38183 -8.53452
ltibia 31.8913
lfoot -12.2382 -2.52297
ltoes -24.2841
111
root -8.14751 17.6281 -0.0588779 -35.3072 86.8898 -50.4626
lowerback 5.30164 3.67542 -3.90612
upperback 4.2173 4.86102 3.94948
thorax 0.734105 2.37225 6.04322
lowerneck -15.0882 -1.81221 0.0689768
upperneck 36.9524 0.770194 -4.76477
head 15.5682 0.181189 -1.77163
rclavicle 6.75868e-015 4.21423e-014
rhumerus -8.6418 1.94792 -103.641
rradius 33.4618
rwrist -53.9816
rhand -28.4411 -10.2435
rfingers 7.12502
rthumb -1.81194 -40.2155
lclavicle 6.75868e-015 4.21423e-014
lhumerus -2.03911 -60.6515 100.181
lradius 22.2109
lwrist 32.1721
lhand 1.69236 60.8985
lfingers 7.12502
lthumb -152.79 -91.0438
rfemur -32.9669 -0.715819 10.5297
rtibia 33.8944
rfoot -10.2937 -6.5498
rtoes -8.2621
lfemur -30.2505 6.24426 -8.42086
ltibia 31.7068
lfoot -12.1407 -1.88827
ltoes -25.0565
112
root -8.15065 17.6346 -0.0312001 -29.8048 86.6537 -44.9194
lowerback 5.39556 3.72606 -4.22901
upperback 4.24319 4.91182 3.8981
thorax 0.681923 2.39246 6.1632
lowerneck -15.0926 -1.70332 0.0159045
upperneck 36.8977 0.944231 -4.77312
head 15.5501 0.242362 -1.73522
rclavicle -3.97569e-015 -1.59028e-014
rhumerus -8.87879 1.99157 -103.699
rradius 34.0905
rwrist -54.5132
rhand -29.3149 -10.0641
rfingers 7.12502
rthumb -2.6558 -40.0273
lclavicle -3.97569e-015 -1.59028e-014
lhumerus -1.72429 -61.4796 99.5441
lradius 22.3777
lwrist 31.4975
lhand 2.86579 59.9328
lfingers 7.12502
lthumb -151.668 -92.1906
rfemur -33.0533 -0.578751 10.5534
rtibia 33.91
rfoot -10.9598 -6.40654
rtoes -16.1954
lfemur -29.9339 6.02852 -8.32296
ltibia 31.4902
lfoot -12.0154 -1.244
ltoes -25.324
113
root -8.15442 17.6393 -0.00142309 -27.1396 86.3012 -42.2308
lowerback 5.47466 3.76573 -4.39767
upperback 4.27085 4.95549 3.88469
thorax 0.649081 2.41169 6.2373
lowerneck -15.0933 -1.59072 0.0283953
upperneck 36.8141 1.12481 -4.85262
head 15.5175 0.305093 -1.73926
rclavicle 2.26615e-014 1.51076e-014
rhumerus -9.08026 2.05863 -103.767
rradius 34.7888
rwrist -55.1719
rhand -30.2494 -10.0362
rfingers 7.12502
rthumb -3.55829 -39.9863
lclavicle 2.26615e-014 1.51076e-014
lhumerus -1.14231 -62.6234 98.7165
lradius 22.5053
lwrist 31.3244
lhand 3.44725 59.1968
lfingers 7.12502
lthumb -151.112 -93.0202
rfemur -33.1705 -0.310028 10.7284
rtibia 33.9423
rfoot -12.0475 -6.23469
rtoes -20.0187
lfemur -29.6147 5.94359 -8.07036
ltibia 31.2168
lfoot -11.8753 -0.641752
ltoes -26.0041
114
root -8.15744 17.6415 0.0305598 -25.2869 85.8194 -40.3876
lowerback 5.4427 3.81796 -4.52424
upperback 4.32274 5.02149 3.88506
thorax 0.701799 2.43978 6.30932
lowerneck -15.0616 -1.47153 0.0975289
upperneck 36.647 1.30781 -4.99612
head 15.4368 0.366683 -1.77826
rclavicle -2.78299e-015 -1.51076e-014
rhumerus -9.24927 2.29084 -103.833
rradius 35.5442
rwrist -55.9985
rhand -31.4045 -10.0146
rfingers 7.12502
rthumb -4.67375 -39.943
lclavicle -2.78299e-015 -1.51076e-014
lhumerus -0.198599 -63.9391 97.6007
lradius 22.5826
lwrist 31.2687
lhand 3.76533 59.0216
lfingers 7.12502
lthumb -150.808 -93.2478
rfemur -33.3636 0.0125439 11.0135
rtibia 34.0173
rfoot -11.057 -5.83944
rtoes -14.1559
lfemur -29.2459 5.98632 -7.72482
ltibia 30.8269
lfoot -11.6593 -0.046529
ltoes -26.9885
115
root -8.16096 17.6424 0.0644885 -22.8882 85.3897 -38.0585
lowerback 5.34445 3.86383 -4.73372
upperback 4.34796 5.07601 3.84195
thorax 0.762254 2.46014 6.38688
lowerneck -14.9771 -1.35253 0.177898
upperneck 36.4449 1.47554 -5.12253
head 15.3265 0.426521 -1.81315
rclavicle -1.07344e-014 -2.94201e-014
rhumerus -9.37786 2.37407 -103.882
rradius 36.2177
rwrist -56.5765
rhand -32.4484 -10.0257
rfingers 7.12502
rthumb -5.6817 -39.9295
lclavicle -1.07344e-014 -2.94201e-014
lhumerus 0.852226 -65.3607 96.4036
lradius 22.6502
lwrist 31.0271
lhand 4.10089 58.6493
lfingers 7.12502
lthumb -150.488 -93.6762
rfemur -33.602 0.166119 11.2552
rtibia 34.0224
rfoot -10.7494 -5.3904
rtoes -10.9734
lfemur -29.0439 5.86963 -7.37573
ltibia 30.5878
lfoot -11.6333 0.424334
ltoes -26.7974
116
root -8.16522 17.639 0.0929768 -21.4658 85.014 -36.6997
lowerback 5.31428 3.87446 -4.83316
upperback 4.3444 5.08562 3.8006
thorax 0.769705 2.46239 6.40094
lowerneck -14.8583 -1.17847 0.203498
upperneck 36.2342 1.7391 -5.23357
head 15.2095 0.522927 -1.81482
rclavicle 8.11041e-014 3.73715e-014
rhumerus -9.61098 2.48551 -103.852
rradius 36.9991
rwrist -57.2266
rhand -33.1836 -10.119
rfingers 7.12502
rthumb -6.39142 -40.0026
lclavicle 8.11041e-014 3.73715e-014
lhumerus 1.91766 -66.6334 95.2552
lradius 22.7878
lwrist 30.6403
lhand 4.37482 57.9682
lfingers 7.12502
lthumb -150.227 -94.4037
rfemur -33.8176 0.119245 11.5498
rtibia 34.0206
rfoot -10.6517 -4.97702
rtoes -11.1983
lfemur -28.901 5.31715 -6.81103
ltibia 30.3519
lfoot -11.7411 0.721784
ltoes -24.4313
117
root -8.1702 17.6589 0.122134 -20.1787 84.5891 -35.4457
lowerback 5.30298 3.85593 -4.97047
upperback 4.35698 5.05538 3.78615
thorax 0.784179 2.44349 6.46714
lowerneck -14.8109 -0.940004 0.190244
upperneck 36.1024 2.12605 -5.35449
head 15.155 0.664779 -1.79562
rclavicle 5.00937e-014 1.19271e-014
rhumerus -9.92943 2.79054 -103.774
rradius 37.8751
rwrist -58.0619
rhand -33.8789 -9.9448
rfingers 7.12502
rthumb -7.06267 -39.807
lclavicle 5.00937e-014 1.19271e-014
lhumerus 3.0779 -67.4338 94.1121
lradius 22.8265
lwrist 30.0979
lhand 4.618 57.1592
lfingers 7.12502
lthumb -149.994 -95.2546
rfemur -33.9494 0.135577 11.8726
rtibia 33.985
rfoot -10.5998 -4.56399
rtoes -11.2381
lfemur -28.3056 5.04761 -6.38926
ltibia 30.2016
lfoot -12.2511 1.00199
ltoes -22.2622
118
root -8.17389 17.6634 0.161051 -19.5073 84.1163 -34.7576
lowerback 5.33213 3.79708 -5.13499
upperback 4.3828 4.96923 3.75926
thorax 0.797624 2.3959 6.53751
lowerneck -14.8695 -0.679843 0.227116
upperneck 36.1064 2.53192 -5.4401
head 15.1922 0.824514 -1.77133
rclavicle -7.95139e-016 2.8625e-014
rhumerus -10.1982 2.9398 -103.811
rradius 38.7051
rwrist -58.6287
rhand -34.4684 -9.75593
rfingers 7.12502
rthumb -7.63172 -39.5982
lclavicle -7.95139e-016 2.8625e-014
lhumerus 4.46807 -68.2613 92.6423
lradius 22.8049
lwrist 29.5201
lhand 4.9675 56.4084
lfingers 7.12502
lthumb -149.661 -96.0662
rfemur -34.0442 0.375641 12.222
rtibia 33.9978
rfoot -10.4352 -4.20879
rtoes -9.40286
lfemur -27.8195 4.74455 -5.83999
ltibia 30.0168
lfoot -12.3427 1.27508
ltoes -19.111
